<mxfile host="app.diagrams.net" modified="2023-04-09T05:02:06.292Z" agent="Mozilla/5.0 (Windows NT 10.0; Win64; x64) AppleWebKit/537.36 (KHTML, like Gecko) Chrome/114.0.0.0 Safari/537.36 Edg/114.0.0.0" version="21.1.5" etag="FiDgOlcoSnE6u6zvmBY3" type="github">
  <diagram name="第 1 页" id="hNN_d6ku5EmanHDvC2zp">
    <mxGraphModel>
      <root>
        <mxCell id="0" />
        <mxCell id="1" parent="0" />
      </root>
    </mxGraphModel>
  </diagram>
</mxfile>
